<svg width="64" height="64" xmlns="http://www.w3.org/2000/svg" xml:space="preserve" version="1.1" enable-background="new 0 0 64 64">

 <g>
  <title>Layer 1</title>
  <circle id="svg_1" r="32" fill="#ff0000" cy="32" cx="32"/>
  <g id="svg_2" opacity="0.2">
   <circle id="svg_3" r="5.041" fill="#231F20" cy="19.041" cx="35.065"/>
  </g>
  <g id="svg_4" opacity="0.2">
   <path id="svg_5" fill="#231F20" d="m18.502,53.951c-0.958,0 -1.872,-0.553 -2.286,-1.485c-0.561,-1.262 0.008,-2.739 1.27,-3.3c10.656,-4.736 10.097,-10.136 10.086,-10.188c-0.168,-0.84 0.106,-1.708 0.727,-2.299c0.62,-0.592 1.5,-0.825 2.332,-0.616c0.537,0.134 13.173,3.422 14.833,15.035c0.195,1.367 -0.755,2.633 -2.122,2.829c-1.366,0.192 -2.633,-0.754 -2.829,-2.122c-0.782,-5.473 -5.359,-8.465 -8.387,-9.868c-0.964,3.254 -3.933,7.942 -12.61,11.799c-0.33,0.146 -0.675,0.215 -1.014,0.215z"/>
  </g>
  <g id="svg_6" opacity="0.2">
   <path id="svg_7" fill="#231F20" d="m21.381,39.547c-1.381,0 -2.5,-1.119 -2.5,-2.5c0,-7.372 7.02,-10.49 10.731,-11.108c0.868,-0.147 1.744,0.176 2.313,0.844c0.209,0.241 5.341,6.039 11.456,2.982c1.236,-0.619 2.737,-0.117 3.354,1.118c0.618,1.235 0.117,2.737 -1.118,3.354c-6.816,3.409 -13.157,-0.041 -16.389,-3.058c-1.896,0.597 -5.348,2.188 -5.348,5.869c0.001,1.38 -1.118,2.499 -2.499,2.499z"/>
  </g>
  <g id="svg_8" opacity="0.2">
   <path id="svg_9" fill="#231F20" d="m31.465,41.488c-1.191,0 -2.317,-0.714 -2.787,-1.887c-3.514,-8.785 0.226,-12.88 0.665,-13.318l4.242,4.242c0,0 0.049,-0.038 0.118,-0.127c-0.015,0.019 -1.453,1.978 0.546,6.975c0.615,1.539 -0.133,3.284 -1.671,3.9c-0.364,0.146 -0.742,0.215 -1.113,0.215z"/>
  </g>
  <circle id="svg_10" r="5.041" fill="#FFFFFF" cy="16.041" cx="35.065"/>
  <path id="svg_11" stroke-width="5" stroke-miterlimit="10" stroke-linejoin="round" stroke-linecap="round" stroke="#FFFFFF" fill="none" d="m18.501,48.451c12.964,-5.762 11.523,-12.964 11.523,-12.964s11.523,2.881 12.964,12.964"/>
  <path id="svg_12" stroke-width="5" stroke-miterlimit="10" stroke-linejoin="round" stroke-linecap="round" stroke="#FFFFFF" fill="none" d="m44.501,29c-8,4 -14.477,-3.596 -14.477,-3.596s-8.642,1.44 -8.643,8.643"/>
 </g>
</svg>
